<mxfile host="app.diagrams.net" agent="Mozilla/5.0 (Windows NT 10.0; Win64; x64) AppleWebKit/537.36 (KHTML, like Gecko) Chrome/135.0.0.0 Safari/537.36 OPR/120.0.0.0" version="28.2.0">
  <diagram name="Page-1" id="JZO2J6wv7ykGFOT37yuF">
    <mxGraphModel dx="2191" dy="1095" grid="1" gridSize="10" guides="1" tooltips="1" connect="1" arrows="1" fold="1" page="1" pageScale="1" pageWidth="1169" pageHeight="1654" math="0" shadow="0">
      <root>
        <mxCell id="0" />
        <mxCell id="1" parent="0" />
        <mxCell id="T_yBTQzuqSP6kl9U7Xl0-1" value="" style="html=1;whiteSpace=wrap;fontSize=14;" parent="1" vertex="1">
          <mxGeometry x="170" y="210" width="1330" height="1310" as="geometry" />
        </mxCell>
        <mxCell id="T_yBTQzuqSP6kl9U7Xl0-2" value="Entites" style="shape=folder;fontStyle=1;tabWidth=110;tabHeight=30;tabPosition=left;html=1;boundedLbl=1;labelInHeader=1;container=1;collapsible=0;recursiveResize=0;whiteSpace=wrap;fontSize=14;" parent="1" vertex="1">
          <mxGeometry x="350" y="1210" width="560" height="260" as="geometry" />
        </mxCell>
        <mxCell id="T_yBTQzuqSP6kl9U7Xl0-3" value="&lt;div style=&quot;text-align: left;&quot;&gt;&lt;font face=&quot;monospace&quot;&gt;PatientTreatmentRecord&lt;/font&gt;&lt;/div&gt;" style="swimlane;fontStyle=1;align=center;verticalAlign=top;childLayout=stackLayout;horizontal=1;startSize=26;horizontalStack=0;resizeParent=1;resizeParentMax=0;resizeLast=0;collapsible=1;marginBottom=0;whiteSpace=wrap;html=1;fillColor=#dae8fc;strokeColor=#6c8ebf;rounded=1;fontSize=14;" parent="T_yBTQzuqSP6kl9U7Xl0-2" vertex="1">
          <mxGeometry x="49.5" y="60" width="230" height="190" as="geometry">
            <mxRectangle x="200" y="60" width="70" height="30" as="alternateBounds" />
          </mxGeometry>
        </mxCell>
        <mxCell id="T_yBTQzuqSP6kl9U7Xl0-4" value="&lt;div&gt;&amp;nbsp; &amp;nbsp;- id : String&lt;/div&gt;&lt;div&gt;&amp;nbsp; &amp;nbsp; - patientId : String&lt;/div&gt;&lt;div&gt;&amp;nbsp; &amp;nbsp; - prescriptionId : String&lt;/div&gt;&lt;div&gt;&amp;nbsp; &amp;nbsp; - status : TreatmentStatus&lt;/div&gt;&lt;div&gt;&amp;nbsp; &amp;nbsp; - confirmationDate : LocalDateTime&lt;/div&gt;&lt;div&gt;&amp;nbsp; &amp;nbsp; - notes : String&lt;/div&gt;&lt;div&gt;&amp;nbsp; &amp;nbsp; - reminderSent : boolean&lt;/div&gt;&lt;div&gt;&amp;nbsp; &amp;nbsp; - createdAt : LocalDateTime&lt;/div&gt;" style="text;strokeColor=none;fillColor=none;align=left;verticalAlign=top;spacingLeft=4;spacingRight=4;overflow=hidden;rotatable=0;points=[[0,0.5],[1,0.5]];portConstraint=eastwest;whiteSpace=wrap;html=1;rounded=1;fontSize=14;" parent="T_yBTQzuqSP6kl9U7Xl0-3" vertex="1">
          <mxGeometry y="26" width="230" height="164" as="geometry" />
        </mxCell>
        <mxCell id="T_yBTQzuqSP6kl9U7Xl0-69" value="&lt;div style=&quot;text-align: left;&quot;&gt;&lt;font face=&quot;monospace&quot;&gt;TreatmentReminder&lt;/font&gt;&lt;/div&gt;" style="swimlane;fontStyle=1;align=center;verticalAlign=top;childLayout=stackLayout;horizontal=1;startSize=26;horizontalStack=0;resizeParent=1;resizeParentMax=0;resizeLast=0;collapsible=1;marginBottom=0;whiteSpace=wrap;html=1;fillColor=#dae8fc;strokeColor=#6c8ebf;rounded=1;fontSize=14;" parent="T_yBTQzuqSP6kl9U7Xl0-2" vertex="1">
          <mxGeometry x="300" y="60" width="230" height="130" as="geometry">
            <mxRectangle x="200" y="60" width="70" height="30" as="alternateBounds" />
          </mxGeometry>
        </mxCell>
        <mxCell id="T_yBTQzuqSP6kl9U7Xl0-70" value="&lt;div&gt;&amp;nbsp; &amp;nbsp; - id: String&lt;/div&gt;&lt;div&gt;&amp;nbsp; &amp;nbsp; - treatmentId: String&lt;/div&gt;&lt;div&gt;&amp;nbsp; &amp;nbsp; - patientId: String&lt;/div&gt;&lt;div&gt;&amp;nbsp; &amp;nbsp; - reminderDate: LocalDateTime&lt;/div&gt;&lt;div&gt;&amp;nbsp; &amp;nbsp; - message: String&lt;/div&gt;" style="text;strokeColor=none;fillColor=none;align=left;verticalAlign=top;spacingLeft=4;spacingRight=4;overflow=hidden;rotatable=0;points=[[0,0.5],[1,0.5]];portConstraint=eastwest;whiteSpace=wrap;html=1;rounded=1;fontSize=14;" parent="T_yBTQzuqSP6kl9U7Xl0-69" vertex="1">
          <mxGeometry y="26" width="230" height="104" as="geometry" />
        </mxCell>
        <mxCell id="T_yBTQzuqSP6kl9U7Xl0-5" value="DTOs" style="shape=folder;fontStyle=1;tabWidth=110;tabHeight=30;tabPosition=left;html=1;boundedLbl=1;labelInHeader=1;container=1;collapsible=0;recursiveResize=0;whiteSpace=wrap;fontSize=14;" parent="1" vertex="1">
          <mxGeometry x="1160" y="850" width="320" height="423.5" as="geometry" />
        </mxCell>
        <mxCell id="T_yBTQzuqSP6kl9U7Xl0-6" value="&lt;div style=&quot;text-align: left;&quot;&gt;&lt;span style=&quot;font-weight: 400;&quot;&gt;PatientTreatmentDTO&lt;/span&gt;&lt;/div&gt;" style="swimlane;fontStyle=1;align=center;verticalAlign=top;childLayout=stackLayout;horizontal=1;startSize=26;horizontalStack=0;resizeParent=1;resizeParentMax=0;resizeLast=0;collapsible=1;marginBottom=0;whiteSpace=wrap;html=1;fillColor=#dae8fc;strokeColor=#6c8ebf;rounded=1;fontSize=14;" parent="T_yBTQzuqSP6kl9U7Xl0-5" vertex="1">
          <mxGeometry x="20" y="42" width="220" height="198" as="geometry">
            <mxRectangle x="200" y="60" width="70" height="30" as="alternateBounds" />
          </mxGeometry>
        </mxCell>
        <mxCell id="T_yBTQzuqSP6kl9U7Xl0-7" value="&lt;div&gt;- id : String&lt;/div&gt;&lt;div&gt;&amp;nbsp; &amp;nbsp; - patientId : String&lt;/div&gt;&lt;div&gt;&amp;nbsp; &amp;nbsp; - prescriptionId : String&lt;/div&gt;&lt;div&gt;&amp;nbsp; &amp;nbsp; - confirmedByPatient : boolean&lt;/div&gt;&lt;div&gt;&amp;nbsp; &amp;nbsp; - confirmationDate : LocalDateTime&lt;/div&gt;&lt;div&gt;&amp;nbsp; &amp;nbsp; - notes : String&lt;/div&gt;&lt;div&gt;&amp;nbsp; &amp;nbsp; - reminderSent : boolean&lt;/div&gt;&lt;div&gt;&amp;nbsp; &amp;nbsp; - createdAt : LocalDateTime&lt;/div&gt;" style="text;strokeColor=none;fillColor=none;align=left;verticalAlign=top;spacingLeft=4;spacingRight=4;overflow=hidden;rotatable=0;points=[[0,0.5],[1,0.5]];portConstraint=eastwest;whiteSpace=wrap;html=1;rounded=1;fontSize=14;" parent="T_yBTQzuqSP6kl9U7Xl0-6" vertex="1">
          <mxGeometry y="26" width="220" height="164" as="geometry" />
        </mxCell>
        <mxCell id="T_yBTQzuqSP6kl9U7Xl0-8" value="" style="line;strokeWidth=1;fillColor=none;align=left;verticalAlign=middle;spacingTop=-1;spacingLeft=3;spacingRight=3;rotatable=0;labelPosition=right;points=[];portConstraint=eastwest;strokeColor=inherit;rounded=1;fontSize=14;" parent="T_yBTQzuqSP6kl9U7Xl0-6" vertex="1">
          <mxGeometry y="190" width="220" height="8" as="geometry" />
        </mxCell>
        <mxCell id="T_yBTQzuqSP6kl9U7Xl0-82" value="&lt;div style=&quot;text-align: left;&quot;&gt;&lt;span style=&quot;font-weight: 400;&quot;&gt;TreatmentReminderDTO&lt;/span&gt;&lt;/div&gt;" style="swimlane;fontStyle=1;align=center;verticalAlign=top;childLayout=stackLayout;horizontal=1;startSize=26;horizontalStack=0;resizeParent=1;resizeParentMax=0;resizeLast=0;collapsible=1;marginBottom=0;whiteSpace=wrap;html=1;fillColor=#dae8fc;strokeColor=#6c8ebf;rounded=1;fontSize=14;arcSize=50;" parent="T_yBTQzuqSP6kl9U7Xl0-5" vertex="1">
          <mxGeometry x="40" y="260" width="210" height="148" as="geometry">
            <mxRectangle x="200" y="60" width="70" height="30" as="alternateBounds" />
          </mxGeometry>
        </mxCell>
        <mxCell id="T_yBTQzuqSP6kl9U7Xl0-83" value="&lt;div&gt;- id: String&lt;/div&gt;&lt;div&gt;&amp;nbsp; &amp;nbsp; - treatmentId: String&lt;/div&gt;&lt;div&gt;&amp;nbsp; &amp;nbsp; - patientId: String&lt;/div&gt;&lt;div&gt;&amp;nbsp; &amp;nbsp; - reminderDate: LocalDateTime&lt;/div&gt;&lt;div&gt;&amp;nbsp; &amp;nbsp; - message: String&lt;/div&gt;" style="text;strokeColor=none;fillColor=none;align=left;verticalAlign=top;spacingLeft=4;spacingRight=4;overflow=hidden;rotatable=0;points=[[0,0.5],[1,0.5]];portConstraint=eastwest;whiteSpace=wrap;html=1;rounded=1;fontSize=14;" parent="T_yBTQzuqSP6kl9U7Xl0-82" vertex="1">
          <mxGeometry y="26" width="210" height="114" as="geometry" />
        </mxCell>
        <mxCell id="T_yBTQzuqSP6kl9U7Xl0-84" value="" style="line;strokeWidth=1;fillColor=none;align=left;verticalAlign=middle;spacingTop=-1;spacingLeft=3;spacingRight=3;rotatable=0;labelPosition=right;points=[];portConstraint=eastwest;strokeColor=inherit;rounded=1;fontSize=14;" parent="T_yBTQzuqSP6kl9U7Xl0-82" vertex="1">
          <mxGeometry y="140" width="210" height="8" as="geometry" />
        </mxCell>
        <mxCell id="T_yBTQzuqSP6kl9U7Xl0-12" value="Services" style="shape=folder;fontStyle=1;tabWidth=110;tabHeight=30;tabPosition=left;html=1;boundedLbl=1;labelInHeader=1;container=1;collapsible=0;recursiveResize=0;whiteSpace=wrap;fontSize=14;" parent="1" vertex="1">
          <mxGeometry x="200" y="600" width="909" height="290" as="geometry" />
        </mxCell>
        <mxCell id="T_yBTQzuqSP6kl9U7Xl0-13" value="&lt;div style=&quot;text-align: left;&quot;&gt;PatientTreatmentServiceImpl&lt;/div&gt;" style="swimlane;fontStyle=1;align=center;verticalAlign=top;childLayout=stackLayout;horizontal=1;startSize=26;horizontalStack=0;resizeParent=1;resizeParentMax=0;resizeLast=0;collapsible=1;marginBottom=0;whiteSpace=wrap;html=1;rounded=1;fillColor=#dae8fc;strokeColor=#6c8ebf;fontSize=14;" parent="T_yBTQzuqSP6kl9U7Xl0-12" vertex="1">
          <mxGeometry x="330" y="171" width="260" height="90" as="geometry" />
        </mxCell>
        <mxCell id="T_yBTQzuqSP6kl9U7Xl0-14" value="&lt;div&gt;&amp;nbsp;+ getTreatmentsByPatient()&lt;/div&gt;&lt;div&gt;&amp;nbsp; &amp;nbsp; + confirmTreatment()&lt;/div&gt;" style="text;strokeColor=none;fillColor=none;align=left;verticalAlign=top;spacingLeft=4;spacingRight=4;overflow=hidden;rotatable=0;points=[[0,0.5],[1,0.5]];portConstraint=eastwest;whiteSpace=wrap;html=1;rounded=1;fontSize=14;" parent="T_yBTQzuqSP6kl9U7Xl0-13" vertex="1">
          <mxGeometry y="26" width="260" height="64" as="geometry" />
        </mxCell>
        <mxCell id="T_yBTQzuqSP6kl9U7Xl0-15" value="«interface»&lt;br&gt;&lt;div style=&quot;text-align: left;&quot;&gt;&lt;b&gt;PatientTreatmentService&lt;/b&gt;&lt;/div&gt;" style="html=1;whiteSpace=wrap;fillColor=#dae8fc;strokeColor=#6c8ebf;rounded=1;fontSize=14;" parent="T_yBTQzuqSP6kl9U7Xl0-12" vertex="1">
          <mxGeometry x="353.25" y="40" width="202.5" height="59" as="geometry" />
        </mxCell>
        <mxCell id="T_yBTQzuqSP6kl9U7Xl0-16" value="" style="endArrow=block;dashed=1;endFill=0;endSize=12;html=1;rounded=0;exitX=0.5;exitY=0;exitDx=0;exitDy=0;entryX=0.5;entryY=1;entryDx=0;entryDy=0;fontSize=14;" parent="T_yBTQzuqSP6kl9U7Xl0-12" source="T_yBTQzuqSP6kl9U7Xl0-13" target="T_yBTQzuqSP6kl9U7Xl0-15" edge="1">
          <mxGeometry width="160" relative="1" as="geometry">
            <mxPoint x="602.5000000000005" y="150" as="sourcePoint" />
            <mxPoint x="455.5" y="70" as="targetPoint" />
          </mxGeometry>
        </mxCell>
        <mxCell id="T_yBTQzuqSP6kl9U7Xl0-17" value="Implements" style="edgeLabel;html=1;align=center;verticalAlign=middle;resizable=0;points=[];fontSize=14;" parent="T_yBTQzuqSP6kl9U7Xl0-16" vertex="1" connectable="0">
          <mxGeometry x="-0.0998" y="1" relative="1" as="geometry">
            <mxPoint as="offset" />
          </mxGeometry>
        </mxCell>
        <mxCell id="T_yBTQzuqSP6kl9U7Xl0-56" value="&lt;div style=&quot;text-align: left;&quot;&gt;DoctorTreatmentServiceImpl&lt;/div&gt;" style="swimlane;fontStyle=1;align=center;verticalAlign=top;childLayout=stackLayout;horizontal=1;startSize=26;horizontalStack=0;resizeParent=1;resizeParentMax=0;resizeLast=0;collapsible=1;marginBottom=0;whiteSpace=wrap;html=1;rounded=1;fillColor=#dae8fc;strokeColor=#6c8ebf;fontSize=14;" parent="T_yBTQzuqSP6kl9U7Xl0-12" vertex="1">
          <mxGeometry x="20" y="171" width="294" height="90" as="geometry" />
        </mxCell>
        <mxCell id="T_yBTQzuqSP6kl9U7Xl0-57" value="&lt;div&gt;&amp;nbsp;+ createTreatmentRecord()&lt;/div&gt;&lt;div&gt;&amp;nbsp; &amp;nbsp; + getAllTreatmentsByDoctor()&lt;/div&gt;&lt;div&gt;&amp;nbsp; &amp;nbsp; + getTreatmentStatistics()&lt;/div&gt;" style="text;strokeColor=none;fillColor=none;align=left;verticalAlign=top;spacingLeft=4;spacingRight=4;overflow=hidden;rotatable=0;points=[[0,0.5],[1,0.5]];portConstraint=eastwest;whiteSpace=wrap;html=1;rounded=1;fontSize=14;" parent="T_yBTQzuqSP6kl9U7Xl0-56" vertex="1">
          <mxGeometry y="26" width="294" height="64" as="geometry" />
        </mxCell>
        <mxCell id="T_yBTQzuqSP6kl9U7Xl0-58" value="«interface»&lt;br&gt;&lt;div style=&quot;text-align: left;&quot;&gt;&lt;b&gt;DoctorTreatmentService&amp;nbsp;&lt;/b&gt;&lt;/div&gt;" style="html=1;whiteSpace=wrap;fillColor=#dae8fc;strokeColor=#6c8ebf;rounded=1;fontSize=14;" parent="T_yBTQzuqSP6kl9U7Xl0-12" vertex="1">
          <mxGeometry x="50" y="40" width="193.5" height="59" as="geometry" />
        </mxCell>
        <mxCell id="T_yBTQzuqSP6kl9U7Xl0-59" value="" style="endArrow=block;dashed=1;endFill=0;endSize=12;html=1;rounded=0;exitX=0.432;exitY=0.015;exitDx=0;exitDy=0;entryX=0.5;entryY=1;entryDx=0;entryDy=0;fontSize=14;exitPerimeter=0;" parent="T_yBTQzuqSP6kl9U7Xl0-12" source="T_yBTQzuqSP6kl9U7Xl0-56" target="T_yBTQzuqSP6kl9U7Xl0-58" edge="1">
          <mxGeometry width="160" relative="1" as="geometry">
            <mxPoint x="191.50000000000045" y="150" as="sourcePoint" />
            <mxPoint x="44.5" y="70" as="targetPoint" />
          </mxGeometry>
        </mxCell>
        <mxCell id="T_yBTQzuqSP6kl9U7Xl0-60" value="Implements" style="edgeLabel;html=1;align=center;verticalAlign=middle;resizable=0;points=[];fontSize=14;" parent="T_yBTQzuqSP6kl9U7Xl0-59" vertex="1" connectable="0">
          <mxGeometry x="-0.0998" y="1" relative="1" as="geometry">
            <mxPoint as="offset" />
          </mxGeometry>
        </mxCell>
        <mxCell id="T_yBTQzuqSP6kl9U7Xl0-75" value="«interface»&lt;br&gt;&lt;div style=&quot;text-align: left;&quot;&gt;&lt;b&gt;&lt;span style=&quot;background-color: transparent; color: light-dark(rgb(0, 0, 0), rgb(255, 255, 255));&quot;&gt;TreatmentReminder&lt;/span&gt;Service&amp;nbsp;&lt;/b&gt;&lt;/div&gt;" style="html=1;whiteSpace=wrap;fillColor=#dae8fc;strokeColor=#6c8ebf;rounded=1;fontSize=14;" parent="T_yBTQzuqSP6kl9U7Xl0-12" vertex="1">
          <mxGeometry x="650" y="40" width="193.5" height="59" as="geometry" />
        </mxCell>
        <mxCell id="T_yBTQzuqSP6kl9U7Xl0-73" value="&lt;div style=&quot;text-align: left;&quot;&gt;&lt;span style=&quot;background-color: transparent; color: light-dark(rgb(0, 0, 0), rgb(255, 255, 255));&quot;&gt;TreatmentReminder&lt;/span&gt;ServiceImpl&lt;/div&gt;" style="swimlane;fontStyle=1;align=center;verticalAlign=top;childLayout=stackLayout;horizontal=1;startSize=26;horizontalStack=0;resizeParent=1;resizeParentMax=0;resizeLast=0;collapsible=1;marginBottom=0;whiteSpace=wrap;html=1;rounded=1;fillColor=#dae8fc;strokeColor=#6c8ebf;fontSize=14;" parent="T_yBTQzuqSP6kl9U7Xl0-12" vertex="1">
          <mxGeometry x="599.75" y="171" width="294" height="90" as="geometry" />
        </mxCell>
        <mxCell id="T_yBTQzuqSP6kl9U7Xl0-74" value="&lt;div&gt;&amp;nbsp;+ createTreatmentRecord()&lt;/div&gt;&lt;div&gt;&amp;nbsp; &amp;nbsp; + getAllTreatmentsByDoctor()&lt;/div&gt;&lt;div&gt;&amp;nbsp; &amp;nbsp; + getTreatmentStatistics()&lt;/div&gt;" style="text;strokeColor=none;fillColor=none;align=left;verticalAlign=top;spacingLeft=4;spacingRight=4;overflow=hidden;rotatable=0;points=[[0,0.5],[1,0.5]];portConstraint=eastwest;whiteSpace=wrap;html=1;rounded=1;fontSize=14;" parent="T_yBTQzuqSP6kl9U7Xl0-73" vertex="1">
          <mxGeometry y="26" width="294" height="64" as="geometry" />
        </mxCell>
        <mxCell id="T_yBTQzuqSP6kl9U7Xl0-76" value="" style="endArrow=block;dashed=1;endFill=0;endSize=12;html=1;rounded=0;exitX=0.5;exitY=0;exitDx=0;exitDy=0;entryX=0.5;entryY=1;entryDx=0;entryDy=0;fontSize=14;" parent="T_yBTQzuqSP6kl9U7Xl0-12" source="T_yBTQzuqSP6kl9U7Xl0-73" target="T_yBTQzuqSP6kl9U7Xl0-75" edge="1">
          <mxGeometry width="160" relative="1" as="geometry">
            <mxPoint x="491.50000000000045" y="450" as="sourcePoint" />
            <mxPoint x="344.5" y="370" as="targetPoint" />
          </mxGeometry>
        </mxCell>
        <mxCell id="T_yBTQzuqSP6kl9U7Xl0-77" value="Implements" style="edgeLabel;html=1;align=center;verticalAlign=middle;resizable=0;points=[];fontSize=14;" parent="T_yBTQzuqSP6kl9U7Xl0-76" vertex="1" connectable="0">
          <mxGeometry x="-0.0998" y="1" relative="1" as="geometry">
            <mxPoint as="offset" />
          </mxGeometry>
        </mxCell>
        <mxCell id="T_yBTQzuqSP6kl9U7Xl0-18" value="Controllers" style="shape=folder;fontStyle=1;tabWidth=110;tabHeight=30;tabPosition=left;html=1;boundedLbl=1;labelInHeader=1;container=1;collapsible=0;recursiveResize=0;whiteSpace=wrap;fontSize=14;" parent="1" vertex="1">
          <mxGeometry x="200" y="380" width="839.5" height="167.5" as="geometry" />
        </mxCell>
        <mxCell id="T_yBTQzuqSP6kl9U7Xl0-19" value="&lt;div style=&quot;text-align: left;&quot;&gt;&lt;span style=&quot;font-weight: 400;&quot;&gt;DoctorTreatmentController&lt;/span&gt;&lt;/div&gt;" style="swimlane;fontStyle=1;align=center;verticalAlign=top;childLayout=stackLayout;horizontal=1;startSize=26;horizontalStack=0;resizeParent=1;resizeParentMax=0;resizeLast=0;collapsible=1;marginBottom=0;whiteSpace=wrap;html=1;rounded=1;fillColor=#dae8fc;strokeColor=#6c8ebf;fontSize=14;" parent="T_yBTQzuqSP6kl9U7Xl0-18" vertex="1">
          <mxGeometry x="29.5" y="42" width="250" height="100" as="geometry" />
        </mxCell>
        <mxCell id="T_yBTQzuqSP6kl9U7Xl0-20" value="&lt;div&gt;&amp;nbsp; &amp;nbsp; + createTreatment()&lt;/div&gt;&lt;div&gt;&amp;nbsp; &amp;nbsp; + getAllTreatmentsByDoctor()&lt;/div&gt;&lt;div&gt;&amp;nbsp; &amp;nbsp; + getTreatmentStatistics()&lt;/div&gt;" style="text;strokeColor=none;fillColor=none;align=left;verticalAlign=top;spacingLeft=4;spacingRight=4;overflow=hidden;rotatable=0;points=[[0,0.5],[1,0.5]];portConstraint=eastwest;whiteSpace=wrap;html=1;rounded=1;fontSize=14;" parent="T_yBTQzuqSP6kl9U7Xl0-19" vertex="1">
          <mxGeometry y="26" width="250" height="74" as="geometry" />
        </mxCell>
        <mxCell id="T_yBTQzuqSP6kl9U7Xl0-54" value="&lt;div style=&quot;text-align: left;&quot;&gt;&lt;span style=&quot;font-weight: 400;&quot;&gt;PatientTreatmentController&lt;/span&gt;&lt;/div&gt;" style="swimlane;fontStyle=1;align=center;verticalAlign=top;childLayout=stackLayout;horizontal=1;startSize=26;horizontalStack=0;resizeParent=1;resizeParentMax=0;resizeLast=0;collapsible=1;marginBottom=0;whiteSpace=wrap;html=1;rounded=1;fillColor=#dae8fc;strokeColor=#6c8ebf;fontSize=14;" parent="T_yBTQzuqSP6kl9U7Xl0-18" vertex="1">
          <mxGeometry x="299.5" y="52" width="230.5" height="90" as="geometry" />
        </mxCell>
        <mxCell id="T_yBTQzuqSP6kl9U7Xl0-55" value="&lt;div&gt;&amp;nbsp; &amp;nbsp; + getTreatmentsByPatient()&lt;/div&gt;&lt;div&gt;&amp;nbsp; &amp;nbsp; + confirmTreatment()&lt;/div&gt;" style="text;strokeColor=none;fillColor=none;align=left;verticalAlign=top;spacingLeft=4;spacingRight=4;overflow=hidden;rotatable=0;points=[[0,0.5],[1,0.5]];portConstraint=eastwest;whiteSpace=wrap;html=1;rounded=1;fontSize=14;" parent="T_yBTQzuqSP6kl9U7Xl0-54" vertex="1">
          <mxGeometry y="26" width="230.5" height="64" as="geometry" />
        </mxCell>
        <mxCell id="T_yBTQzuqSP6kl9U7Xl0-71" value="&lt;div style=&quot;text-align: left;&quot;&gt;&lt;span style=&quot;font-weight: 400;&quot;&gt;TreatmentReminderController&lt;/span&gt;&lt;/div&gt;" style="swimlane;fontStyle=1;align=center;verticalAlign=top;childLayout=stackLayout;horizontal=1;startSize=26;horizontalStack=0;resizeParent=1;resizeParentMax=0;resizeLast=0;collapsible=1;marginBottom=0;whiteSpace=wrap;html=1;rounded=1;fillColor=#dae8fc;strokeColor=#6c8ebf;fontSize=14;" parent="T_yBTQzuqSP6kl9U7Xl0-18" vertex="1">
          <mxGeometry x="549.5" y="52" width="270" height="90" as="geometry" />
        </mxCell>
        <mxCell id="T_yBTQzuqSP6kl9U7Xl0-72" value="&lt;div&gt;&amp;nbsp; &amp;nbsp;+getRemindersByPatient(patientId: String): List&amp;lt;TreatmentReminderDTO&amp;gt;&lt;/div&gt;&lt;div&gt;&lt;br&gt;&lt;/div&gt;" style="text;strokeColor=none;fillColor=none;align=left;verticalAlign=top;spacingLeft=4;spacingRight=4;overflow=hidden;rotatable=0;points=[[0,0.5],[1,0.5]];portConstraint=eastwest;whiteSpace=wrap;html=1;rounded=1;fontSize=14;" parent="T_yBTQzuqSP6kl9U7Xl0-71" vertex="1">
          <mxGeometry y="26" width="270" height="64" as="geometry" />
        </mxCell>
        <mxCell id="T_yBTQzuqSP6kl9U7Xl0-21" value="Repositories" style="shape=folder;fontStyle=1;tabWidth=110;tabHeight=30;tabPosition=left;html=1;boundedLbl=1;labelInHeader=1;container=1;collapsible=0;recursiveResize=0;whiteSpace=wrap;fontSize=14;" parent="1" vertex="1">
          <mxGeometry x="230" y="920" width="830" height="260" as="geometry" />
        </mxCell>
        <mxCell id="T_yBTQzuqSP6kl9U7Xl0-22" value="&lt;div style=&quot;text-align: left;&quot;&gt;&lt;span style=&quot;font-weight: 400;&quot;&gt;PatientTreatmentRepository&lt;/span&gt;&lt;/div&gt;" style="swimlane;fontStyle=1;align=center;verticalAlign=top;childLayout=stackLayout;horizontal=1;startSize=26;horizontalStack=0;resizeParent=1;resizeParentMax=0;resizeLast=0;collapsible=1;marginBottom=0;whiteSpace=wrap;html=1;rounded=1;fillColor=#dae8fc;strokeColor=#6c8ebf;fontSize=14;" parent="T_yBTQzuqSP6kl9U7Xl0-21" vertex="1">
          <mxGeometry x="20" y="75" width="380" height="150" as="geometry" />
        </mxCell>
        <mxCell id="T_yBTQzuqSP6kl9U7Xl0-23" value="" style="line;strokeWidth=1;fillColor=none;align=left;verticalAlign=middle;spacingTop=-1;spacingLeft=3;spacingRight=3;rotatable=0;labelPosition=right;points=[];portConstraint=eastwest;strokeColor=inherit;rounded=1;fontSize=14;" parent="T_yBTQzuqSP6kl9U7Xl0-22" vertex="1">
          <mxGeometry y="26" width="380" height="8" as="geometry" />
        </mxCell>
        <mxCell id="T_yBTQzuqSP6kl9U7Xl0-24" value="&lt;div&gt;&amp;nbsp;+ findByPatientId(patientId: String): List&amp;lt;PatientTreatmentRecord&amp;gt;&lt;/div&gt;&lt;div&gt;&amp;nbsp; &amp;nbsp; + findByPrescriptionId(prescriptionId: String): List&amp;lt;PatientTreatmentRecord&amp;gt;&lt;/div&gt;&lt;div&gt;&amp;nbsp; &amp;nbsp; + existsByPatientIdAndPrescriptionId(patientId: String, prescriptionId: String): boolean&lt;/div&gt;" style="text;strokeColor=none;fillColor=none;align=left;verticalAlign=top;spacingLeft=4;spacingRight=4;overflow=hidden;rotatable=0;points=[[0,0.5],[1,0.5]];portConstraint=eastwest;whiteSpace=wrap;html=1;rounded=1;fontSize=14;" parent="T_yBTQzuqSP6kl9U7Xl0-22" vertex="1">
          <mxGeometry y="34" width="380" height="116" as="geometry" />
        </mxCell>
        <mxCell id="T_yBTQzuqSP6kl9U7Xl0-78" value="&lt;div style=&quot;text-align: left;&quot;&gt;&lt;span style=&quot;font-weight: 400;&quot;&gt;TreatmentReminderRepository&lt;/span&gt;&lt;/div&gt;" style="swimlane;fontStyle=1;align=center;verticalAlign=top;childLayout=stackLayout;horizontal=1;startSize=26;horizontalStack=0;resizeParent=1;resizeParentMax=0;resizeLast=0;collapsible=1;marginBottom=0;whiteSpace=wrap;html=1;rounded=1;fillColor=#dae8fc;strokeColor=#6c8ebf;fontSize=14;" parent="T_yBTQzuqSP6kl9U7Xl0-21" vertex="1">
          <mxGeometry x="450" y="70" width="350" height="160" as="geometry" />
        </mxCell>
        <mxCell id="T_yBTQzuqSP6kl9U7Xl0-79" value="" style="line;strokeWidth=1;fillColor=none;align=left;verticalAlign=middle;spacingTop=-1;spacingLeft=3;spacingRight=3;rotatable=0;labelPosition=right;points=[];portConstraint=eastwest;strokeColor=inherit;rounded=1;fontSize=14;" parent="T_yBTQzuqSP6kl9U7Xl0-78" vertex="1">
          <mxGeometry y="26" width="350" height="8" as="geometry" />
        </mxCell>
        <mxCell id="T_yBTQzuqSP6kl9U7Xl0-80" value="&lt;div&gt;&amp;nbsp;+ findByPatientId(patientId: String): List&amp;lt;TreatmentReminder&amp;gt;&lt;/div&gt;&lt;div&gt;&lt;span style=&quot;background-color: transparent;&quot;&gt;&amp;nbsp; &amp;nbsp; + findByTreatmentId(treatmentId: String): List&amp;lt;TreatmentReminder&amp;gt;&lt;/span&gt;yPatientId(patientId: String): List&amp;lt;TreatmentReminder&amp;gt;&lt;/div&gt;&lt;div&gt;&lt;br&gt;&lt;/div&gt;" style="text;strokeColor=none;fillColor=none;align=left;verticalAlign=top;spacingLeft=4;spacingRight=4;overflow=hidden;rotatable=0;points=[[0,0.5],[1,0.5]];portConstraint=eastwest;whiteSpace=wrap;html=1;rounded=1;fontSize=14;" parent="T_yBTQzuqSP6kl9U7Xl0-78" vertex="1">
          <mxGeometry y="34" width="350" height="126" as="geometry" />
        </mxCell>
        <mxCell id="T_yBTQzuqSP6kl9U7Xl0-29" value="" style="shape=card;whiteSpace=wrap;html=1;rotation=90;flipV=1;flipH=1;direction=west;fontSize=14;" parent="1" vertex="1">
          <mxGeometry x="350" width="30" height="391" as="geometry" />
        </mxCell>
        <mxCell id="T_yBTQzuqSP6kl9U7Xl0-30" value="&lt;h1 style=&quot;text-align: left; margin-top: 0px;&quot;&gt;&lt;span style=&quot;background-color: transparent; color: light-dark(rgb(0, 0, 0), rgb(255, 255, 255));&quot;&gt;&lt;font style=&quot;font-size: 25px;&quot;&gt;Patient-service -DC&lt;/font&gt;&lt;/span&gt;&lt;/h1&gt;" style="text;html=1;align=center;verticalAlign=middle;whiteSpace=wrap;rounded=0;fontSize=14;" parent="1" vertex="1">
          <mxGeometry x="170" y="193" width="340" height="27" as="geometry" />
        </mxCell>
        <mxCell id="T_yBTQzuqSP6kl9U7Xl0-31" value="Use" style="endArrow=open;endSize=12;dashed=1;html=1;rounded=0;exitX=0.489;exitY=1.008;exitDx=0;exitDy=0;exitPerimeter=0;fontSize=14;" parent="1" source="T_yBTQzuqSP6kl9U7Xl0-20" edge="1">
          <mxGeometry width="160" relative="1" as="geometry">
            <mxPoint x="850.5" y="681.5" as="sourcePoint" />
            <mxPoint x="360" y="650" as="targetPoint" />
          </mxGeometry>
        </mxCell>
        <mxCell id="T_yBTQzuqSP6kl9U7Xl0-32" value="Use" style="endArrow=open;endSize=12;dashed=1;html=1;rounded=0;exitX=0.478;exitY=1.012;exitDx=0;exitDy=0;exitPerimeter=0;entryX=0.421;entryY=0.05;entryDx=0;entryDy=0;entryPerimeter=0;fontSize=14;" parent="1" source="T_yBTQzuqSP6kl9U7Xl0-14" target="T_yBTQzuqSP6kl9U7Xl0-22" edge="1">
          <mxGeometry width="160" relative="1" as="geometry">
            <mxPoint x="900.5" y="1061.5" as="sourcePoint" />
            <mxPoint x="1060.5" y="1061.5" as="targetPoint" />
          </mxGeometry>
        </mxCell>
        <mxCell id="T_yBTQzuqSP6kl9U7Xl0-34" value="feignClient" style="shape=folder;fontStyle=1;tabWidth=110;tabHeight=30;tabPosition=left;html=1;boundedLbl=1;labelInHeader=1;container=1;collapsible=0;recursiveResize=0;whiteSpace=wrap;fontSize=14;" parent="1" vertex="1">
          <mxGeometry x="750" y="220" width="680" height="160" as="geometry" />
        </mxCell>
        <mxCell id="T_yBTQzuqSP6kl9U7Xl0-35" value="&lt;div style=&quot;text-align: left;&quot;&gt;&lt;span style=&quot;font-weight: 400;&quot;&gt;&amp;nbsp;UserClient&amp;nbsp;&lt;/span&gt;&lt;/div&gt;" style="swimlane;fontStyle=1;align=center;verticalAlign=top;childLayout=stackLayout;horizontal=1;startSize=26;horizontalStack=0;resizeParent=1;resizeParentMax=0;resizeLast=0;collapsible=1;marginBottom=0;whiteSpace=wrap;html=1;rounded=1;fillColor=#dae8fc;strokeColor=#6c8ebf;fontSize=14;" parent="T_yBTQzuqSP6kl9U7Xl0-34" vertex="1">
          <mxGeometry x="10" y="42" width="310" height="60" as="geometry" />
        </mxCell>
        <mxCell id="T_yBTQzuqSP6kl9U7Xl0-36" value="&lt;div&gt;&amp;nbsp; &amp;nbsp; + getUserById(id: String): UserResponseDTO&lt;/div&gt;&lt;div&gt;&lt;br&gt;&lt;/div&gt;" style="text;strokeColor=none;fillColor=none;align=left;verticalAlign=top;spacingLeft=4;spacingRight=4;overflow=hidden;rotatable=0;points=[[0,0.5],[1,0.5]];portConstraint=eastwest;whiteSpace=wrap;html=1;rounded=1;fontSize=14;" parent="T_yBTQzuqSP6kl9U7Xl0-35" vertex="1">
          <mxGeometry y="26" width="310" height="34" as="geometry" />
        </mxCell>
        <mxCell id="T_yBTQzuqSP6kl9U7Xl0-37" value="&lt;div style=&quot;text-align: left;&quot;&gt;&lt;span style=&quot;font-weight: 400;&quot;&gt;&amp;nbsp;PrescriptionClient&lt;/span&gt;&lt;/div&gt;" style="swimlane;fontStyle=1;align=center;verticalAlign=top;childLayout=stackLayout;horizontal=1;startSize=26;horizontalStack=0;resizeParent=1;resizeParentMax=0;resizeLast=0;collapsible=1;marginBottom=0;whiteSpace=wrap;html=1;rounded=1;fillColor=#dae8fc;strokeColor=#6c8ebf;fontSize=14;" parent="T_yBTQzuqSP6kl9U7Xl0-34" vertex="1">
          <mxGeometry x="330" y="50" width="310" height="90" as="geometry" />
        </mxCell>
        <mxCell id="T_yBTQzuqSP6kl9U7Xl0-38" value="&lt;div&gt;&lt;div&gt;&amp;nbsp; + getPrescriptionByCode(code: String)&lt;/div&gt;&lt;div&gt;&amp;nbsp; &amp;nbsp; + validatePrescription(code: String, pharmacistId: String)&lt;/div&gt;&lt;/div&gt;" style="text;strokeColor=none;fillColor=none;align=left;verticalAlign=top;spacingLeft=4;spacingRight=4;overflow=hidden;rotatable=0;points=[[0,0.5],[1,0.5]];portConstraint=eastwest;whiteSpace=wrap;html=1;rounded=1;fontSize=14;" parent="T_yBTQzuqSP6kl9U7Xl0-37" vertex="1">
          <mxGeometry y="26" width="310" height="64" as="geometry" />
        </mxCell>
        <mxCell id="T_yBTQzuqSP6kl9U7Xl0-39" value="Use" style="endArrow=open;endSize=12;dashed=1;html=1;rounded=0;exitX=0.985;exitY=0.118;exitDx=0;exitDy=0;exitPerimeter=0;entryX=0.5;entryY=1;entryDx=0;entryDy=0;entryPerimeter=0;fontSize=14;" parent="1" source="T_yBTQzuqSP6kl9U7Xl0-12" target="T_yBTQzuqSP6kl9U7Xl0-34" edge="1">
          <mxGeometry width="160" relative="1" as="geometry">
            <mxPoint x="1280.5" y="929.5" as="sourcePoint" />
            <mxPoint x="1560.5" y="831.5" as="targetPoint" />
          </mxGeometry>
        </mxCell>
        <mxCell id="T_yBTQzuqSP6kl9U7Xl0-40" value="return" style="html=1;verticalAlign=bottom;endArrow=open;dashed=1;endSize=8;curved=0;rounded=0;entryX=0.538;entryY=0.187;entryDx=0;entryDy=0;entryPerimeter=0;fontSize=14;exitX=0.811;exitY=0.983;exitDx=0;exitDy=0;exitPerimeter=0;" parent="1" source="T_yBTQzuqSP6kl9U7Xl0-34" target="T_yBTQzuqSP6kl9U7Xl0-42" edge="1">
          <mxGeometry relative="1" as="geometry">
            <mxPoint x="1380" y="410" as="sourcePoint" />
            <mxPoint x="1739" y="400" as="targetPoint" />
            <Array as="points" />
          </mxGeometry>
        </mxCell>
        <mxCell id="T_yBTQzuqSP6kl9U7Xl0-41" value="Use" style="endArrow=open;endSize=12;dashed=1;html=1;rounded=0;exitX=0.53;exitY=0.967;exitDx=0;exitDy=0;entryX=0.75;entryY=0;entryDx=0;entryDy=0;fontSize=14;exitPerimeter=0;" parent="1" source="T_yBTQzuqSP6kl9U7Xl0-24" target="T_yBTQzuqSP6kl9U7Xl0-3" edge="1">
          <mxGeometry width="160" relative="1" as="geometry">
            <mxPoint x="1107.5" y="1771.5" as="sourcePoint" />
            <mxPoint x="970.5" y="1916.5" as="targetPoint" />
          </mxGeometry>
        </mxCell>
        <mxCell id="T_yBTQzuqSP6kl9U7Xl0-42" value="common.dto" style="shape=folder;fontStyle=1;tabWidth=110;tabHeight=30;tabPosition=left;html=1;boundedLbl=1;labelInHeader=1;container=1;collapsible=0;recursiveResize=0;whiteSpace=wrap;fontSize=14;" parent="1" vertex="1">
          <mxGeometry x="1150" y="520" width="300" height="157" as="geometry" />
        </mxCell>
        <mxCell id="T_yBTQzuqSP6kl9U7Xl0-43" value="&lt;div style=&quot;text-align: left;&quot;&gt;&lt;span style=&quot;font-weight: 400;&quot;&gt;UserResponseDTO&amp;nbsp;&lt;/span&gt;&lt;/div&gt;" style="swimlane;fontStyle=1;align=center;verticalAlign=top;childLayout=stackLayout;horizontal=1;startSize=26;horizontalStack=0;resizeParent=1;resizeParentMax=0;resizeLast=0;collapsible=1;marginBottom=0;whiteSpace=wrap;html=1;fillColor=#dae8fc;strokeColor=#6c8ebf;rounded=1;fontSize=14;" parent="T_yBTQzuqSP6kl9U7Xl0-42" vertex="1">
          <mxGeometry x="19.5" y="46" width="250" height="34" as="geometry">
            <mxRectangle x="200" y="60" width="70" height="30" as="alternateBounds" />
          </mxGeometry>
        </mxCell>
        <mxCell id="T_yBTQzuqSP6kl9U7Xl0-44" value="" style="line;strokeWidth=1;fillColor=none;align=left;verticalAlign=middle;spacingTop=-1;spacingLeft=3;spacingRight=3;rotatable=0;labelPosition=right;points=[];portConstraint=eastwest;strokeColor=inherit;rounded=1;fontSize=14;" parent="T_yBTQzuqSP6kl9U7Xl0-43" vertex="1">
          <mxGeometry y="26" width="250" height="8" as="geometry" />
        </mxCell>
        <mxCell id="T_yBTQzuqSP6kl9U7Xl0-45" value="&lt;div style=&quot;text-align: left;&quot;&gt;&lt;span style=&quot;font-weight: 400;&quot;&gt;PrescriptionResponseDTO&lt;/span&gt;&lt;/div&gt;" style="swimlane;fontStyle=1;align=center;verticalAlign=top;childLayout=stackLayout;horizontal=1;startSize=26;horizontalStack=0;resizeParent=1;resizeParentMax=0;resizeLast=0;collapsible=1;marginBottom=0;whiteSpace=wrap;html=1;fillColor=#dae8fc;strokeColor=#6c8ebf;rounded=1;fontSize=14;" parent="T_yBTQzuqSP6kl9U7Xl0-42" vertex="1">
          <mxGeometry x="30" y="95" width="250" height="34" as="geometry">
            <mxRectangle x="200" y="60" width="70" height="30" as="alternateBounds" />
          </mxGeometry>
        </mxCell>
        <mxCell id="T_yBTQzuqSP6kl9U7Xl0-46" value="" style="line;strokeWidth=1;fillColor=none;align=left;verticalAlign=middle;spacingTop=-1;spacingLeft=3;spacingRight=3;rotatable=0;labelPosition=right;points=[];portConstraint=eastwest;strokeColor=inherit;rounded=1;fontSize=14;" parent="T_yBTQzuqSP6kl9U7Xl0-45" vertex="1">
          <mxGeometry y="26" width="250" height="8" as="geometry" />
        </mxCell>
        <mxCell id="T_yBTQzuqSP6kl9U7Xl0-65" value="Enums" style="shape=folder;fontStyle=1;tabWidth=110;tabHeight=30;tabPosition=left;html=1;boundedLbl=1;labelInHeader=1;container=1;collapsible=0;recursiveResize=0;whiteSpace=wrap;fontSize=14;" parent="1" vertex="1">
          <mxGeometry x="980" y="1310" width="195.25" height="160" as="geometry" />
        </mxCell>
        <mxCell id="T_yBTQzuqSP6kl9U7Xl0-68" value="&lt;p style=&quot;margin:0px;margin-top:4px;text-align:center;&quot;&gt;&lt;i&gt;&amp;lt;&amp;lt;Enumeration&amp;gt;&amp;gt;&lt;/i&gt;&lt;br&gt;&lt;b&gt;TreatmentStatus&lt;/b&gt;&lt;/p&gt;&lt;hr style=&quot;border-style:solid;&quot;&gt;&lt;p style=&quot;margin:0px;margin-left:4px;&quot;&gt;&amp;nbsp;&lt;span style=&quot;background-color: transparent;&quot;&gt;&amp;nbsp;&amp;nbsp;&lt;/span&gt;&lt;span style=&quot;background-color: transparent;&quot;&gt;&amp;nbsp;PENDING&lt;/span&gt;&lt;/p&gt;&lt;p style=&quot;margin:0px;margin-left:4px;&quot;&gt;&amp;nbsp; &amp;nbsp; CONFIRMED&lt;/p&gt;" style="verticalAlign=top;align=left;overflow=fill;html=1;whiteSpace=wrap;fillColor=#dae8fc;strokeColor=#6c8ebf;rounded=1;fontSize=14;" parent="T_yBTQzuqSP6kl9U7Xl0-65" vertex="1">
          <mxGeometry x="25.25" y="40" width="140" height="90" as="geometry" />
        </mxCell>
        <mxCell id="T_yBTQzuqSP6kl9U7Xl0-88" value="Use" style="endArrow=open;endSize=12;dashed=1;html=1;rounded=0;exitX=0.488;exitY=1.017;exitDx=0;exitDy=0;exitPerimeter=0;fontSize=14;entryX=0.5;entryY=0;entryDx=0;entryDy=0;" parent="1" source="T_yBTQzuqSP6kl9U7Xl0-55" target="T_yBTQzuqSP6kl9U7Xl0-15" edge="1">
          <mxGeometry width="160" relative="1" as="geometry">
            <mxPoint x="412" y="590" as="sourcePoint" />
            <mxPoint x="400" y="780" as="targetPoint" />
          </mxGeometry>
        </mxCell>
        <mxCell id="T_yBTQzuqSP6kl9U7Xl0-89" value="Use" style="endArrow=open;endSize=12;dashed=1;html=1;rounded=0;exitX=0.486;exitY=1.071;exitDx=0;exitDy=0;exitPerimeter=0;fontSize=14;entryX=0.5;entryY=0;entryDx=0;entryDy=0;" parent="1" source="T_yBTQzuqSP6kl9U7Xl0-72" target="T_yBTQzuqSP6kl9U7Xl0-75" edge="1">
          <mxGeometry width="160" relative="1" as="geometry">
            <mxPoint x="752" y="640" as="sourcePoint" />
            <mxPoint x="740" y="830" as="targetPoint" />
          </mxGeometry>
        </mxCell>
        <mxCell id="T_yBTQzuqSP6kl9U7Xl0-90" value="Use" style="endArrow=open;endSize=12;dashed=1;html=1;rounded=0;exitX=0.5;exitY=0.986;exitDx=0;exitDy=0;exitPerimeter=0;entryX=0.5;entryY=0;entryDx=0;entryDy=0;fontSize=14;" parent="1" source="T_yBTQzuqSP6kl9U7Xl0-74" target="T_yBTQzuqSP6kl9U7Xl0-78" edge="1">
          <mxGeometry width="160" relative="1" as="geometry">
            <mxPoint x="734" y="950" as="sourcePoint" />
            <mxPoint x="490" y="1091" as="targetPoint" />
          </mxGeometry>
        </mxCell>
        <mxCell id="T_yBTQzuqSP6kl9U7Xl0-91" value="Use" style="endArrow=open;endSize=12;dashed=1;html=1;rounded=0;exitX=0.509;exitY=1.01;exitDx=0;exitDy=0;entryX=0.5;entryY=0;entryDx=0;entryDy=0;fontSize=14;exitPerimeter=0;" parent="1" source="T_yBTQzuqSP6kl9U7Xl0-80" target="T_yBTQzuqSP6kl9U7Xl0-69" edge="1">
          <mxGeometry width="160" relative="1" as="geometry">
            <mxPoint x="530" y="1240" as="sourcePoint" />
            <mxPoint x="651" y="1399" as="targetPoint" />
          </mxGeometry>
        </mxCell>
        <mxCell id="T_yBTQzuqSP6kl9U7Xl0-92" value="type" style="endArrow=open;endSize=12;dashed=1;html=1;rounded=0;exitX=0.989;exitY=0.784;exitDx=0;exitDy=0;exitPerimeter=0;entryX=0;entryY=0;entryDx=0;entryDy=127.5;fontSize=14;entryPerimeter=0;" parent="1" source="T_yBTQzuqSP6kl9U7Xl0-4" target="T_yBTQzuqSP6kl9U7Xl0-65" edge="1">
          <mxGeometry width="160" relative="1" as="geometry">
            <mxPoint x="1067" y="1420" as="sourcePoint" />
            <mxPoint x="930" y="1565" as="targetPoint" />
          </mxGeometry>
        </mxCell>
        <mxCell id="T_yBTQzuqSP6kl9U7Xl0-97" value="Use" style="endArrow=open;endSize=12;dashed=1;html=1;rounded=0;exitX=1.004;exitY=0.528;exitDx=0;exitDy=0;exitPerimeter=0;fontSize=14;entryX=0.615;entryY=0.061;entryDx=0;entryDy=0;entryPerimeter=0;" parent="1" source="T_yBTQzuqSP6kl9U7Xl0-12" target="T_yBTQzuqSP6kl9U7Xl0-5" edge="1">
          <mxGeometry width="160" relative="1" as="geometry">
            <mxPoint x="1090" y="940" as="sourcePoint" />
            <mxPoint x="1212" y="1272" as="targetPoint" />
          </mxGeometry>
        </mxCell>
      </root>
    </mxGraphModel>
  </diagram>
</mxfile>
